<mxfile host="app.diagrams.net" modified="2022-08-07T14:43:30.896Z" agent="5.0 (Macintosh; Intel Mac OS X 10_15_7) AppleWebKit/537.36 (KHTML, like Gecko) Chrome/104.0.0.0 Safari/537.36" etag="pHNFnZ35b09xEmJgNWHc" version="20.2.3" type="github">
  <diagram id="R2lEEEUBdFMjLlhIrx00" name="Page-1">
    <mxGraphModel dx="946" dy="614" grid="1" gridSize="10" guides="1" tooltips="1" connect="1" arrows="1" fold="1" page="1" pageScale="1" pageWidth="850" pageHeight="1100" math="0" shadow="0" extFonts="Permanent Marker^https://fonts.googleapis.com/css?family=Permanent+Marker">
      <root>
        <mxCell id="0" />
        <mxCell id="1" parent="0" />
        <mxCell id="WKD1OyBgU3QbN6_qKVtO-1" value="글" style="rounded=0;whiteSpace=wrap;html=1;" vertex="1" parent="1">
          <mxGeometry x="180" y="130" width="80" height="80" as="geometry" />
        </mxCell>
        <mxCell id="WKD1OyBgU3QbN6_qKVtO-5" value="댓글" style="rounded=0;whiteSpace=wrap;html=1;" vertex="1" parent="1">
          <mxGeometry x="440" y="380" width="80" height="80" as="geometry" />
        </mxCell>
        <mxCell id="WKD1OyBgU3QbN6_qKVtO-6" value="작성자" style="rounded=0;whiteSpace=wrap;html=1;" vertex="1" parent="1">
          <mxGeometry x="660" y="140" width="80" height="80" as="geometry" />
        </mxCell>
        <mxCell id="WKD1OyBgU3QbN6_qKVtO-10" style="edgeStyle=orthogonalEdgeStyle;rounded=1;orthogonalLoop=1;jettySize=auto;html=1;entryX=0;entryY=0.5;entryDx=0;entryDy=0;endArrow=none;endFill=0;" edge="1" parent="1" source="WKD1OyBgU3QbN6_qKVtO-8" target="WKD1OyBgU3QbN6_qKVtO-1">
          <mxGeometry relative="1" as="geometry" />
        </mxCell>
        <mxCell id="WKD1OyBgU3QbN6_qKVtO-8" value="&lt;u&gt;글아이디&lt;/u&gt;" style="ellipse;whiteSpace=wrap;html=1;" vertex="1" parent="1">
          <mxGeometry x="60" y="120" width="60" height="40" as="geometry" />
        </mxCell>
        <mxCell id="WKD1OyBgU3QbN6_qKVtO-14" style="edgeStyle=orthogonalEdgeStyle;rounded=1;orthogonalLoop=1;jettySize=auto;html=1;entryX=0;entryY=0.5;entryDx=0;entryDy=0;endArrow=none;endFill=0;" edge="1" parent="1" target="WKD1OyBgU3QbN6_qKVtO-5">
          <mxGeometry relative="1" as="geometry">
            <mxPoint x="380" y="510" as="sourcePoint" />
          </mxGeometry>
        </mxCell>
        <mxCell id="WKD1OyBgU3QbN6_qKVtO-13" value="&lt;u&gt;댓글아이디&lt;/u&gt;" style="ellipse;whiteSpace=wrap;html=1;" vertex="1" parent="1">
          <mxGeometry x="320" y="490" width="60" height="40" as="geometry" />
        </mxCell>
        <mxCell id="WKD1OyBgU3QbN6_qKVtO-51" style="edgeStyle=orthogonalEdgeStyle;rounded=1;orthogonalLoop=1;jettySize=auto;html=1;entryX=1;entryY=0.5;entryDx=0;entryDy=0;endArrow=none;endFill=0;" edge="1" parent="1" source="WKD1OyBgU3QbN6_qKVtO-15" target="WKD1OyBgU3QbN6_qKVtO-6">
          <mxGeometry relative="1" as="geometry" />
        </mxCell>
        <mxCell id="WKD1OyBgU3QbN6_qKVtO-15" value="&lt;u&gt;작성자&lt;br&gt;아이디&lt;/u&gt;" style="ellipse;whiteSpace=wrap;html=1;" vertex="1" parent="1">
          <mxGeometry x="810" y="160" width="60" height="40" as="geometry" />
        </mxCell>
        <mxCell id="WKD1OyBgU3QbN6_qKVtO-20" style="edgeStyle=orthogonalEdgeStyle;orthogonalLoop=1;jettySize=auto;html=1;rounded=1;endArrow=none;endFill=0;" edge="1" parent="1" source="WKD1OyBgU3QbN6_qKVtO-19" target="WKD1OyBgU3QbN6_qKVtO-1">
          <mxGeometry relative="1" as="geometry" />
        </mxCell>
        <mxCell id="WKD1OyBgU3QbN6_qKVtO-19" value="작성자" style="ellipse;whiteSpace=wrap;html=1;" vertex="1" parent="1">
          <mxGeometry x="110" y="40" width="60" height="40" as="geometry" />
        </mxCell>
        <mxCell id="WKD1OyBgU3QbN6_qKVtO-22" style="edgeStyle=orthogonalEdgeStyle;rounded=1;orthogonalLoop=1;jettySize=auto;html=1;entryX=0.25;entryY=1;entryDx=0;entryDy=0;endArrow=none;endFill=0;" edge="1" parent="1" source="WKD1OyBgU3QbN6_qKVtO-21" target="WKD1OyBgU3QbN6_qKVtO-5">
          <mxGeometry relative="1" as="geometry" />
        </mxCell>
        <mxCell id="WKD1OyBgU3QbN6_qKVtO-21" value="작성자" style="ellipse;whiteSpace=wrap;html=1;" vertex="1" parent="1">
          <mxGeometry x="465" y="530" width="60" height="40" as="geometry" />
        </mxCell>
        <mxCell id="WKD1OyBgU3QbN6_qKVtO-25" style="edgeStyle=orthogonalEdgeStyle;rounded=1;orthogonalLoop=1;jettySize=auto;html=1;entryX=1;entryY=0.369;entryDx=0;entryDy=0;entryPerimeter=0;endArrow=none;endFill=0;" edge="1" parent="1" source="WKD1OyBgU3QbN6_qKVtO-24" target="WKD1OyBgU3QbN6_qKVtO-1">
          <mxGeometry relative="1" as="geometry">
            <mxPoint x="290" y="160" as="targetPoint" />
          </mxGeometry>
        </mxCell>
        <mxCell id="WKD1OyBgU3QbN6_qKVtO-24" value="태그" style="ellipse;whiteSpace=wrap;html=1;" vertex="1" parent="1">
          <mxGeometry x="320" y="90" width="60" height="40" as="geometry" />
        </mxCell>
        <mxCell id="WKD1OyBgU3QbN6_qKVtO-27" style="edgeStyle=orthogonalEdgeStyle;rounded=1;orthogonalLoop=1;jettySize=auto;html=1;entryX=1;entryY=0.5;entryDx=0;entryDy=0;endArrow=none;endFill=0;" edge="1" parent="1" target="WKD1OyBgU3QbN6_qKVtO-5">
          <mxGeometry relative="1" as="geometry">
            <mxPoint x="590" y="470" as="sourcePoint" />
          </mxGeometry>
        </mxCell>
        <mxCell id="WKD1OyBgU3QbN6_qKVtO-26" value="평점" style="ellipse;whiteSpace=wrap;html=1;" vertex="1" parent="1">
          <mxGeometry x="590" y="450" width="60" height="40" as="geometry" />
        </mxCell>
        <mxCell id="WKD1OyBgU3QbN6_qKVtO-32" style="edgeStyle=orthogonalEdgeStyle;rounded=1;orthogonalLoop=1;jettySize=auto;html=1;entryX=0.75;entryY=0;entryDx=0;entryDy=0;endArrow=none;endFill=0;" edge="1" parent="1" source="WKD1OyBgU3QbN6_qKVtO-29" target="WKD1OyBgU3QbN6_qKVtO-1">
          <mxGeometry relative="1" as="geometry" />
        </mxCell>
        <mxCell id="WKD1OyBgU3QbN6_qKVtO-29" value="본문" style="ellipse;whiteSpace=wrap;html=1;" vertex="1" parent="1">
          <mxGeometry x="210" y="10" width="60" height="40" as="geometry" />
        </mxCell>
        <mxCell id="WKD1OyBgU3QbN6_qKVtO-31" style="edgeStyle=orthogonalEdgeStyle;rounded=1;orthogonalLoop=1;jettySize=auto;html=1;entryX=-0.012;entryY=0.894;entryDx=0;entryDy=0;entryPerimeter=0;endArrow=none;endFill=0;" edge="1" parent="1" source="WKD1OyBgU3QbN6_qKVtO-30" target="WKD1OyBgU3QbN6_qKVtO-1">
          <mxGeometry relative="1" as="geometry" />
        </mxCell>
        <mxCell id="WKD1OyBgU3QbN6_qKVtO-30" value="제목" style="ellipse;whiteSpace=wrap;html=1;" vertex="1" parent="1">
          <mxGeometry x="60" y="180" width="60" height="40" as="geometry" />
        </mxCell>
        <mxCell id="WKD1OyBgU3QbN6_qKVtO-36" style="edgeStyle=orthogonalEdgeStyle;rounded=1;orthogonalLoop=1;jettySize=auto;html=1;entryX=-0.012;entryY=0.669;entryDx=0;entryDy=0;entryPerimeter=0;endArrow=none;endFill=0;" edge="1" parent="1" source="WKD1OyBgU3QbN6_qKVtO-33" target="WKD1OyBgU3QbN6_qKVtO-5">
          <mxGeometry relative="1" as="geometry" />
        </mxCell>
        <mxCell id="WKD1OyBgU3QbN6_qKVtO-33" value="작성일" style="ellipse;whiteSpace=wrap;html=1;" vertex="1" parent="1">
          <mxGeometry x="390" y="530" width="60" height="40" as="geometry" />
        </mxCell>
        <mxCell id="WKD1OyBgU3QbN6_qKVtO-35" style="edgeStyle=orthogonalEdgeStyle;rounded=1;orthogonalLoop=1;jettySize=auto;html=1;entryX=1;entryY=0.75;entryDx=0;entryDy=0;endArrow=none;endFill=0;" edge="1" parent="1" source="WKD1OyBgU3QbN6_qKVtO-34" target="WKD1OyBgU3QbN6_qKVtO-5">
          <mxGeometry relative="1" as="geometry" />
        </mxCell>
        <mxCell id="WKD1OyBgU3QbN6_qKVtO-34" value="본문" style="ellipse;whiteSpace=wrap;html=1;" vertex="1" parent="1">
          <mxGeometry x="560" y="530" width="60" height="40" as="geometry" />
        </mxCell>
        <mxCell id="WKD1OyBgU3QbN6_qKVtO-38" style="edgeStyle=orthogonalEdgeStyle;rounded=1;orthogonalLoop=1;jettySize=auto;html=1;entryX=0.5;entryY=0;entryDx=0;entryDy=0;endArrow=none;endFill=0;" edge="1" parent="1" source="WKD1OyBgU3QbN6_qKVtO-37" target="WKD1OyBgU3QbN6_qKVtO-6">
          <mxGeometry relative="1" as="geometry" />
        </mxCell>
        <mxCell id="WKD1OyBgU3QbN6_qKVtO-37" value="&lt;u&gt;닉네임&lt;/u&gt;" style="ellipse;whiteSpace=wrap;html=1;" vertex="1" parent="1">
          <mxGeometry x="760" y="60" width="60" height="40" as="geometry" />
        </mxCell>
        <mxCell id="WKD1OyBgU3QbN6_qKVtO-40" style="edgeStyle=orthogonalEdgeStyle;rounded=1;orthogonalLoop=1;jettySize=auto;html=1;entryX=0.913;entryY=0;entryDx=0;entryDy=0;entryPerimeter=0;endArrow=none;endFill=0;" edge="1" parent="1" source="WKD1OyBgU3QbN6_qKVtO-39" target="WKD1OyBgU3QbN6_qKVtO-1">
          <mxGeometry relative="1" as="geometry" />
        </mxCell>
        <mxCell id="WKD1OyBgU3QbN6_qKVtO-39" value="작성일" style="ellipse;whiteSpace=wrap;html=1;" vertex="1" parent="1">
          <mxGeometry x="310" y="30" width="60" height="40" as="geometry" />
        </mxCell>
        <mxCell id="WKD1OyBgU3QbN6_qKVtO-43" style="edgeStyle=orthogonalEdgeStyle;rounded=1;orthogonalLoop=1;jettySize=auto;html=1;entryX=0.5;entryY=1;entryDx=0;entryDy=0;endArrow=none;endFill=0;" edge="1" parent="1" source="WKD1OyBgU3QbN6_qKVtO-42" target="WKD1OyBgU3QbN6_qKVtO-1">
          <mxGeometry relative="1" as="geometry" />
        </mxCell>
        <mxCell id="WKD1OyBgU3QbN6_qKVtO-44" style="edgeStyle=orthogonalEdgeStyle;rounded=1;orthogonalLoop=1;jettySize=auto;html=1;entryX=0;entryY=0.25;entryDx=0;entryDy=0;endArrow=none;endFill=0;" edge="1" parent="1" source="WKD1OyBgU3QbN6_qKVtO-42" target="WKD1OyBgU3QbN6_qKVtO-5">
          <mxGeometry relative="1" as="geometry" />
        </mxCell>
        <mxCell id="WKD1OyBgU3QbN6_qKVtO-42" value="포함" style="rhombus;whiteSpace=wrap;html=1;" vertex="1" parent="1">
          <mxGeometry x="190" y="370" width="60" height="60" as="geometry" />
        </mxCell>
        <mxCell id="WKD1OyBgU3QbN6_qKVtO-47" style="edgeStyle=orthogonalEdgeStyle;rounded=1;orthogonalLoop=1;jettySize=auto;html=1;entryX=0;entryY=0.75;entryDx=0;entryDy=0;endArrow=none;endFill=0;" edge="1" parent="1" source="WKD1OyBgU3QbN6_qKVtO-45" target="WKD1OyBgU3QbN6_qKVtO-6">
          <mxGeometry relative="1" as="geometry">
            <Array as="points" />
          </mxGeometry>
        </mxCell>
        <mxCell id="WKD1OyBgU3QbN6_qKVtO-54" style="edgeStyle=orthogonalEdgeStyle;rounded=1;orthogonalLoop=1;jettySize=auto;html=1;entryX=1;entryY=0.75;entryDx=0;entryDy=0;endArrow=none;endFill=0;" edge="1" parent="1" source="WKD1OyBgU3QbN6_qKVtO-45" target="WKD1OyBgU3QbN6_qKVtO-1">
          <mxGeometry relative="1" as="geometry" />
        </mxCell>
        <mxCell id="WKD1OyBgU3QbN6_qKVtO-45" value="작성" style="rhombus;whiteSpace=wrap;html=1;" vertex="1" parent="1">
          <mxGeometry x="330" y="170" width="60" height="60" as="geometry" />
        </mxCell>
        <mxCell id="WKD1OyBgU3QbN6_qKVtO-49" style="edgeStyle=orthogonalEdgeStyle;rounded=1;orthogonalLoop=1;jettySize=auto;html=1;entryX=0.625;entryY=1;entryDx=0;entryDy=0;entryPerimeter=0;endArrow=none;endFill=0;" edge="1" parent="1" source="WKD1OyBgU3QbN6_qKVtO-48" target="WKD1OyBgU3QbN6_qKVtO-6">
          <mxGeometry relative="1" as="geometry" />
        </mxCell>
        <mxCell id="WKD1OyBgU3QbN6_qKVtO-50" style="edgeStyle=orthogonalEdgeStyle;rounded=1;orthogonalLoop=1;jettySize=auto;html=1;entryX=1;entryY=0.25;entryDx=0;entryDy=0;endArrow=none;endFill=0;" edge="1" parent="1" source="WKD1OyBgU3QbN6_qKVtO-48" target="WKD1OyBgU3QbN6_qKVtO-5">
          <mxGeometry relative="1" as="geometry" />
        </mxCell>
        <mxCell id="WKD1OyBgU3QbN6_qKVtO-48" value="작성" style="rhombus;whiteSpace=wrap;html=1;" vertex="1" parent="1">
          <mxGeometry x="680" y="370" width="60" height="60" as="geometry" />
        </mxCell>
      </root>
    </mxGraphModel>
  </diagram>
</mxfile>
